<svg width="134" height="39" viewBox="0 0 134 39" fill="none" xmlns="http://www.w3.org/2000/svg">
<path d="M14.925 16.1C14.925 17.1167 14.6917 18.05 14.225 18.9C13.7583 19.7333 13.0417 20.4083 12.075 20.925C11.1083 21.4417 9.90833 21.7 8.475 21.7H5.825V28H1.55V10.45H8.475C9.875 10.45 11.0583 10.6917 12.025 11.175C12.9917 11.6583 13.7167 12.325 14.2 13.175C14.6833 14.025 14.925 15 14.925 16.1ZM8.15 18.3C8.96667 18.3 9.575 18.1083 9.975 17.725C10.375 17.3417 10.575 16.8 10.575 16.1C10.575 15.4 10.375 14.8583 9.975 14.475C9.575 14.0917 8.96667 13.9 8.15 13.9H5.825V18.3H8.15ZM22.8256 28.2C21.6089 28.2 20.5256 27.9917 19.5756 27.575C18.6256 27.1583 17.8756 26.5917 17.3256 25.875C16.7756 25.1417 16.4673 24.325 16.4006 23.425H20.6256C20.6756 23.9083 20.9006 24.3 21.3006 24.6C21.7006 24.9 22.1923 25.05 22.7756 25.05C23.3089 25.05 23.7173 24.95 24.0006 24.75C24.3006 24.5333 24.4506 24.2583 24.4506 23.925C24.4506 23.525 24.2423 23.2333 23.8256 23.05C23.4089 22.85 22.7339 22.6333 21.8006 22.4C20.8006 22.1667 19.9673 21.925 19.3006 21.675C18.6339 21.4083 18.0589 21 17.5756 20.45C17.0923 19.8833 16.8506 19.125 16.8506 18.175C16.8506 17.375 17.0673 16.65 17.5006 16C17.9506 15.3333 18.6006 14.8083 19.4506 14.425C20.3173 14.0417 21.3423 13.85 22.5256 13.85C24.2756 13.85 25.6506 14.2833 26.6506 15.15C27.6673 16.0167 28.2506 17.1667 28.4006 18.6H24.4506C24.3839 18.1167 24.1673 17.7333 23.8006 17.45C23.4506 17.1667 22.9839 17.025 22.4006 17.025C21.9006 17.025 21.5173 17.125 21.2506 17.325C20.9839 17.5083 20.8506 17.7667 20.8506 18.1C20.8506 18.5 21.0589 18.8 21.4756 19C21.9089 19.2 22.5756 19.4 23.4756 19.6C24.5089 19.8667 25.3506 20.1333 26.0006 20.4C26.6506 20.65 27.2173 21.0667 27.7006 21.65C28.2006 22.2167 28.4589 22.9833 28.4756 23.95C28.4756 24.7667 28.2423 25.5 27.7756 26.15C27.3256 26.7833 26.6673 27.2833 25.8006 27.65C24.9506 28.0167 23.9589 28.2 22.8256 28.2ZM45.341 14.05L36.591 34.625H31.991L35.191 27.525L29.516 14.05H34.291L37.516 22.775L40.716 14.05H45.341ZM46.0369 21.025C46.0369 19.575 46.3286 18.3083 46.9119 17.225C47.5119 16.1417 48.3369 15.3083 49.3869 14.725C50.4536 14.1417 51.6702 13.85 53.0369 13.85C54.7869 13.85 56.2452 14.3083 57.4119 15.225C58.5952 16.1417 59.3702 17.4333 59.7369 19.1H55.1869C54.8036 18.0333 54.0619 17.5 52.9619 17.5C52.1786 17.5 51.5536 17.8083 51.0869 18.425C50.6202 19.025 50.3869 19.8917 50.3869 21.025C50.3869 22.1583 50.6202 23.0333 51.0869 23.65C51.5536 24.25 52.1786 24.55 52.9619 24.55C54.0619 24.55 54.8036 24.0167 55.1869 22.95H59.7369C59.3702 24.5833 58.5952 25.8667 57.4119 26.8C56.2286 27.7333 54.7702 28.2 53.0369 28.2C51.6702 28.2 50.4536 27.9083 49.3869 27.325C48.3369 26.7417 47.5119 25.9083 46.9119 24.825C46.3286 23.7417 46.0369 22.475 46.0369 21.025ZM70.5986 13.9C72.1986 13.9 73.482 14.4333 74.4486 15.5C75.4153 16.55 75.8986 18 75.8986 19.85V28H71.6486V20.425C71.6486 19.4917 71.407 18.7667 70.9236 18.25C70.4403 17.7333 69.7903 17.475 68.9736 17.475C68.157 17.475 67.507 17.7333 67.0236 18.25C66.5403 18.7667 66.2986 19.4917 66.2986 20.425V28H62.0236V9.5H66.2986V15.925C66.732 15.3083 67.3236 14.8167 68.0736 14.45C68.8236 14.0833 69.6653 13.9 70.5986 13.9ZM85.2193 28.2C83.8527 28.2 82.6193 27.9083 81.5193 27.325C80.436 26.7417 79.5777 25.9083 78.9443 24.825C78.3277 23.7417 78.0193 22.475 78.0193 21.025C78.0193 19.5917 78.336 18.3333 78.9693 17.25C79.6027 16.15 80.4693 15.3083 81.5693 14.725C82.6693 14.1417 83.9027 13.85 85.2693 13.85C86.636 13.85 87.8693 14.1417 88.9693 14.725C90.0693 15.3083 90.936 16.15 91.5693 17.25C92.2027 18.3333 92.5193 19.5917 92.5193 21.025C92.5193 22.4583 92.1943 23.725 91.5443 24.825C90.911 25.9083 90.036 26.7417 88.9193 27.325C87.8193 27.9083 86.586 28.2 85.2193 28.2ZM85.2193 24.5C86.036 24.5 86.7277 24.2 87.2943 23.6C87.8777 23 88.1693 22.1417 88.1693 21.025C88.1693 19.9083 87.886 19.05 87.3193 18.45C86.7693 17.85 86.086 17.55 85.2693 17.55C84.436 17.55 83.7443 17.85 83.1943 18.45C82.6443 19.0333 82.3693 19.8917 82.3693 21.025C82.3693 22.1417 82.636 23 83.1693 23.6C83.7193 24.2 84.4027 24.5 85.2193 24.5Z" fill="white"/>
<path d="M106.475 25.9H99.925L98.875 29H94.4L100.75 11.45H105.7L112.05 29H107.525L106.475 25.9ZM105.375 22.6L103.2 16.175L101.05 22.6H105.375ZM118.258 17.375C118.758 16.6083 119.383 16.0083 120.133 15.575C120.883 15.125 121.716 14.9 122.633 14.9V19.425H121.458C120.391 19.425 119.591 19.6583 119.058 20.125C118.524 20.575 118.258 21.375 118.258 22.525V29H113.983V15.05H118.258V17.375ZM132.451 25.375V29H130.276C128.726 29 127.518 28.625 126.651 27.875C125.784 27.1083 125.351 25.8667 125.351 24.15V18.6H123.651V15.05H125.351V11.65H129.626V15.05H132.426V18.6H129.626V24.2C129.626 24.6167 129.726 24.9167 129.926 25.1C130.126 25.2833 130.459 25.375 130.926 25.375H132.451Z" fill="url(#paint0_linear_108_55)"/>
<defs>
<linearGradient id="paint0_linear_108_55" x1="128" y1="0.999998" x2="102.865" y2="40.1962" gradientUnits="userSpaceOnUse">
<stop stop-color="#B75CFF"/>
<stop offset="1" stop-color="#671AE4"/>
</linearGradient>
</defs>
</svg>
